# xmcd
#
# Track frame offsets:
#	150
#	20700
#	40125
#	53925
#	71400
#	90975
#	106275
#	135470
#	152850
#	181970
#	199050
#	219375
#	240600
#	266900
#
# Disc length: 3851 seconds
#
# Revision: 0
# Processed by: cddbd v1.5.1PL0 Copyright (c) Steve Scherf et al.
# Submitted via: dBpowerAMP V4.0
#
DISCID=c20f090e
DTITLE=Jamie Hartford Band  - Live an the Gibson Cafe
DYEAR=2002
DGENRE=Alt Country
TTITLE0=40 Days and 40 Nights
TTITLE1=What About Yes
TTITLE2=Hard Hard World
TTITLE3=Who Cut Your Heart Out
TTITLE4=Good Things Happen
TTITLE5=I Just Work
TTITLE6=Mt. Blues
TTITLE7=Sometimes Even Love
TTITLE8=Cold And Hungry
TTITLE9=Treat Her Right
TTITLE10=Killing Floor
TTITLE11=Your Secret's Safe
TTITLE12=Starting Over
TTITLE13=White Lightning
EXTD=
EXTT0=
EXTT1=
EXTT2=
EXTT3=
EXTT4=
EXTT5=
EXTT6=
EXTT7=
EXTT8=
EXTT9=
EXTT10=
EXTT11=
EXTT12=
EXTT13=
PLAYORDER=
